{
  "accessors": [
    {
      "bufferView": 2,
      "componentType": 5126,
      "count": 4410,
      "max": [
        102.40528869628906,
        46.906585693359375,
        75.11524200439453
      ],
      "min": [
        -102.40528869628906,
        1.1085659265518188,
        -106.9876937866211
      ],
      "type": "VEC3"
    },
    {
      "bufferView": 2,
      "byteOffset": 52920,
      "componentType": 5126,
      "count": 4410,
      "max": [
        1.0,
        0.9999958276748657,
        1.0
      ],
      "min": [
        -1.0,
        -0.9998068809509277,
        -1.0
      ],
      "type": "VEC3"
    },
    {
      "bufferView": 1,
      "componentType": 5126,
      "count": 4410,
      "max": [
        1.0,
        1.0000001192092896
      ],
      "min": [
        0.5000001192092896,
        0.49999988079071045
      ],
      "type": "VEC2"
    },
    {
      "bufferView": 0,
      "componentType": 5125,
      "count": 6684,
      "type": "SCALAR"
    },
    {
      "bufferView": 2,
      "byteOffset": 105840,
      "componentType": 5126,
      "count": 144,
      "max": [
        8.39350700378418,
        17.08894157409668,
        64.14228820800781
      ],
      "min": [
        -8.39350700378418,
        12.374833106994629,
        -31.394609451293945
      ],
      "type": "VEC3"
    },
    {
      "bufferView": 2,
      "byteOffset": 107568,
      "componentType": 5126,
      "count": 144,
      "max": [
        0.9639147520065308,
        0.9142572283744812,
        0.5521756410598755
      ],
      "min": [
        -0.963914692401886,
        0.26612213253974915,
        0.004325674846768379
      ],
      "type": "VEC3"
    },
    {
      "bufferView": 1,
      "byteOffset": 35280,
      "componentType": 5126,
      "count": 144,
      "max": [
        1.0,
        1.0000001192092896
      ],
      "min": [
        0.75,
        0.4999999403953552
      ],
      "type": "VEC2"
    },
    {
      "bufferView": 0,
      "byteOffset": 26736,
      "componentType": 5125,
      "count": 216,
      "type": "SCALAR"
    }
  ],
  "asset": {
    "extras": {
      "author": "Mauro3D (https://sketchfab.com/maurogsw)",
      "license": "CC-BY-4.0 (http://creativecommons.org/licenses/by/4.0/)",
      "source": "https://sketchfab.com/3d-models/low-poly-gulfstream-aircraft-af86c5f4a3054cd8a30d1ad213f99e57",
      "title": "Low-Poly Gulfstream Aircraft"
    },
    "generator": "Sketchfab-12.68.0",
    "version": "2.0"
  },
  "bufferViews": [
    {
      "buffer": 0,
      "byteLength": 27600,
      "name": "floatBufferViews",
      "target": 34963
    },
    {
      "buffer": 0,
      "byteLength": 36432,
      "byteOffset": 27600,
      "byteStride": 8,
      "name": "floatBufferViews",
      "target": 34962
    },
    {
      "buffer": 0,
      "byteLength": 109296,
      "byteOffset": 64032,
      "byteStride": 12,
      "name": "floatBufferViews",
      "target": 34962
    }
  ],
  "buffers": [
    {
      "byteLength": 173328,
      "uri": "scene.bin"
    }
  ],
  "materials": [
    {
      "doubleSided": true,
      "name": "Material.001",
      "pbrMetallicRoughness": {
        "baseColorFactor": [
          0.520432,
          0.520432,
          0.520432,
          1.0
        ],
        "metallicFactor": 0.0,
        "roughnessFactor": 0.8836278670333829
      }
    },
    {
      "doubleSided": true,
      "name": "Material.002",
      "pbrMetallicRoughness": {
        "baseColorFactor": [
          0.0,
          0.0,
          0.0,
          1.0
        ],
        "metallicFactor": 0.0
      }
    }
  ],
  "meshes": [
    {
      "name": "Cylinder_Material.001_0",
      "primitives": [
        {
          "attributes": {
            "NORMAL": 1,
            "POSITION": 0,
            "TEXCOORD_0": 2
          },
          "indices": 3,
          "material": 0,
          "mode": 4
        }
      ]
    },
    {
      "name": "Cylinder_Material.002_0",
      "primitives": [
        {
          "attributes": {
            "NORMAL": 5,
            "POSITION": 4,
            "TEXCOORD_0": 6
          },
          "indices": 7,
          "material": 1,
          "mode": 4
        }
      ]
    }
  ],
  "nodes": [
    {
      "children": [
        1
      ],
      "matrix": [
        1.0,
        0.0,
        0.0,
        0.0,
        0.0,
        2.220446049250313e-16,
        -1.0,
        0.0,
        0.0,
        1.0,
        2.220446049250313e-16,
        0.0,
        0.0,
        0.0,
        0.0,
        1.0
      ],
      "name": "Sketchfab_model"
    },
    {
      "children": [
        2
      ],
      "matrix": [
        1.0,
        0.0,
        0.0,
        0.0,
        0.0,
        0.0,
        1.0,
        0.0,
        0.0,
        -1.0,
        0.0,
        0.0,
        0.0,
        0.0,
        0.0,
        1.0
      ],
      "name": "c4cf80f1cdcc4777989d74ce7f407425.fbx"
    },
    {
      "children": [
        3
      ],
      "name": "RootNode"
    },
    {
      "children": [
        4,
        5
      ],
      "name": "Cylinder"
    },
    {
      "mesh": 0,
      "name": "Cylinder_Material.001_0"
    },
    {
      "mesh": 1,
      "name": "Cylinder_Material.002_0"
    }
  ],
  "scene": 0,
  "scenes": [
    {
      "name": "Sketchfab_Scene",
      "nodes": [
        0
      ]
    }
  ]
}
